<svg xmlns="http://www.w3.org/2000/svg" viewBox="0 0 192 192"><defs><linearGradient id="a" data-name="Sfumatura senza nome 84" x1="94.28" y1="1420.39" x2="94.28" y2="1507.437" gradientTransform="matrix(1 0 0 -1 0 1533.153)" gradientUnits="userSpaceOnUse"><stop offset="0" stop-color="#e5e5e5"/><stop offset=".687" stop-color="#fff"/><stop offset="1" stop-color="#919191"/></linearGradient><radialGradient id="b" data-name="Sfumatura senza nome 83" cx="88.34" cy="1484.989" r="43.56" gradientTransform="matrix(1 0 0 -1 1.713 1533.153)" gradientUnits="userSpaceOnUse"><stop offset=".401" stop-color="#fff"/><stop offset="1" stop-color="#919191"/></radialGradient><linearGradient id="c" data-name="Sfumatura senza nome 82" x1="77.07" y1="1420.824" x2="77.07" y2="1463.701" gradientTransform="matrix(1 0 0 -1 0 1533.153)" gradientUnits="userSpaceOnUse"><stop offset=".01" stop-color="#e5e5e5"/><stop offset=".339" stop-color="#a7a7a7"/><stop offset=".694" stop-color="#303030"/><stop offset=".845" stop-color="#131313"/><stop offset=".948" stop-color="#090909"/><stop offset=".962" stop-color="#0c0c0c"/><stop offset=".972" stop-color="#151515"/><stop offset=".981" stop-color="#252525"/><stop offset=".989" stop-color="#3c3c3c"/><stop offset=".997" stop-color="#595959"/><stop offset="1" stop-color="#666"/></linearGradient><linearGradient id="d" data-name="Sfumatura senza nome 81" x1="106.621" y1="1420.825" x2="106.621" y2="1463.739" gradientTransform="matrix(1 0 0 -1 0 1533.153)" gradientUnits="userSpaceOnUse"><stop offset=".01" stop-color="#e5e5e5"/><stop offset=".339" stop-color="#a7a7a7"/><stop offset=".694" stop-color="#303030"/><stop offset=".845" stop-color="#131313"/><stop offset=".954" stop-color="#090909"/><stop offset=".966" stop-color="#0c0c0c"/><stop offset=".975" stop-color="#151515"/><stop offset=".983" stop-color="#252525"/><stop offset=".99" stop-color="#3c3c3c"/><stop offset=".997" stop-color="#595959"/><stop offset="1" stop-color="#666"/></linearGradient><linearGradient id="e" data-name="Sfumatura senza nome 80" x1="92.41" y1="1464.203" x2="92.41" y2="1507.386" gradientTransform="matrix(1 0 0 -1 0 1533.153)" gradientUnits="userSpaceOnUse"><stop offset="0" stop-color="#303030"/><stop offset=".011" stop-color="#222"/><stop offset=".025" stop-color="#171717"/><stop offset=".04" stop-color="#131313"/><stop offset=".14" stop-color="#0e0e0e"/><stop offset=".252"/></linearGradient><linearGradient id="f" data-name="Sfumatura senza nome 79" x1="100.931" y1="1463.906" x2="100.931" y2="1488.908" gradientTransform="matrix(1 0 0 -1 0 1533.153)" gradientUnits="userSpaceOnUse"><stop offset="0" stop-color="#747474"/><stop offset=".141" stop-color="#6f6f6f"/><stop offset=".316" stop-color="#5f5f5f"/><stop offset=".508" stop-color="#464646"/><stop offset=".712" stop-color="#242424"/><stop offset=".795" stop-color="#131313"/><stop offset=".921"/></linearGradient><linearGradient id="g" data-name="Sfumatura senza nome 78" x1="87.621" y1="1438.872" x2="87.621" y2="1463.889" gradientTransform="matrix(1 0 0 -1 0 1533.153)" gradientUnits="userSpaceOnUse"><stop offset=".357" stop-color="#bfbfbf"/><stop offset=".474" stop-color="#bababa"/><stop offset=".61" stop-color="#acacac"/><stop offset=".754" stop-color="#959595"/><stop offset=".903" stop-color="#757575"/><stop offset=".963" stop-color="#666"/><stop offset="1" stop-color="#303030"/></linearGradient><linearGradient id="h" data-name="Sfumatura senza nome 77" x1="97.446" y1="1447.353" x2="74.689" y2="1457.617" gradientTransform="matrix(1 0 0 -1 0 1533.153)" gradientUnits="userSpaceOnUse"><stop offset=".013" stop-color="#f1f1f1" stop-opacity=".8"/><stop offset=".11" stop-color="#ededed" stop-opacity="0"/></linearGradient><linearGradient id="i" data-name="Sfumatura senza nome 76" x1="96.128" y1="1420.978" x2="96.128" y2="1464.18" gradientTransform="matrix(1 0 0 -1 0 1533.153)" gradientUnits="userSpaceOnUse"><stop offset="0" stop-color="#fff"/><stop offset=".216" stop-color="#f9f9f9"/><stop offset=".512" stop-color="#e7e7e7"/><stop offset=".851" stop-color="#cbcbcb"/><stop offset=".969" stop-color="#bfbfbf"/><stop offset=".991" stop-color="#747474"/></linearGradient><linearGradient id="j" data-name="Sfumatura senza nome 75" x1="70.819" y1="1419.269" x2="70.819" y2="1463.916" gradientTransform="matrix(1 0 0 -1 0 1533.153)" gradientUnits="userSpaceOnUse"><stop offset="0" stop-color="#666"/><stop offset=".201" stop-color="#5d5d5d"/><stop offset=".592" stop-color="#505050"/><stop offset=".97" stop-color="#4c4c4c"/><stop offset=".988" stop-color="#757575"/><stop offset="1" stop-color="#8c8c8c"/></linearGradient><linearGradient id="k" data-name="Sfumatura senza nome 74" x1="85.708" y1="1424.671" x2="102.905" y2="1414.742" gradientTransform="matrix(1 0 0 -1 0 1533.153)" gradientUnits="userSpaceOnUse"><stop offset=".019" stop-color="#666"/><stop offset=".022" stop-color="#626262"/><stop offset=".043" stop-color="#454545"/><stop offset=".064" stop-color="#313131"/><stop offset=".085" stop-color="#242424"/><stop offset=".105" stop-color="#202020"/></linearGradient><linearGradient id="l" data-name="Sfumatura senza nome 73" x1="98.72" y1="1496.428" x2="136.83" y2="1475.562" gradientTransform="matrix(1 0 0 -1 0 1533.153)" gradientUnits="userSpaceOnUse"><stop offset="0" stop-color="#595959"/><stop offset="1" stop-color="#747474"/></linearGradient><linearGradient id="m" data-name="Sfumatura senza nome 72" x1="104.407" y1="1505.093" x2="83.764" y2="1511.012" gradientTransform="matrix(1 0 0 -1 0 1533.153)" gradientUnits="userSpaceOnUse"><stop offset=".01" stop-color="#595959"/><stop offset=".026" stop-color="#767676"/><stop offset=".044" stop-color="#919191"/><stop offset=".061" stop-color="#a1a1a1"/><stop offset=".074" stop-color="#a7a7a7"/><stop offset=".501" stop-color="#bebebe"/><stop offset="1" stop-color="#bfbfbf"/></linearGradient><linearGradient id="n" data-name="Sfumatura senza nome 71" x1="52.323" y1="1478.962" x2="89.143" y2="1493.095" gradientTransform="matrix(1 0 0 -1 0 1533.153)" gradientUnits="userSpaceOnUse"><stop offset="0" stop-color="#8c8c8c"/><stop offset=".987" stop-color="#747474"/><stop offset="1" stop-color="#bfbfbf"/></linearGradient><linearGradient id="o" data-name="Sfumatura senza nome 70" x1="117.612" y1="1419.132" x2="117.612" y2="1464.024" gradientTransform="matrix(1 0 0 -1 0 1533.153)" gradientUnits="userSpaceOnUse"><stop offset=".019" stop-color="#202020"/><stop offset=".257" stop-color="#2c2c2c"/><stop offset=".619" stop-color="#393939"/><stop offset=".97" stop-color="#3d3d3d"/><stop offset=".986" stop-color="#5d5d5d"/><stop offset="1" stop-color="#747474"/></linearGradient><clipPath id="p"><path d="M130.465 69.236a5.733 5.733 0 0 0-.636-2.434c-1.315-2.74-5.404-10.789-8.868-17.071q-.405-.733-.842-1.516a24.826 24.826 0 0 0-25.609-.026c.322.61 2.872 5.47 5.2 10.246 2.183 4.474 4.09 8.761 4.302 9.235a3.817 3.817 0 0 1 .455 1.577 3.668 3.668 0 0 1-.45 1.527l-.016.036c-.017.042-2.011 4.54-4.318 9.264a444.837 444.837 0 0 1-5.178 10.21l-.04.077c-.085.163-.157.28-.19.28s-.103-.115-.187-.279l-.127-.246a421.257 421.257 0 0 1-5.1-10.043 303.294 303.294 0 0 1-4.311-9.266l-.02-.046a4.03 4.03 0 0 1-.446-1.54 3.975 3.975 0 0 1 .466-1.545l.114-.254a237.26 237.26 0 0 1 4.178-8.98 540.766 540.766 0 0 1 4.991-9.826 24.995 24.995 0 0 0 13.46 45.981A24.692 24.692 0 0 0 119.48 91.4a226.1 226.1 0 0 0 1.481-2.658c3.96-7.239 8.361-15.935 8.868-17.071a5.598 5.598 0 0 0 .635-2.435z" fill="none"/></clipPath><radialGradient id="q" data-name="Sfumatura senza nome 69" cx="107.468" cy="1463.532" r="24.972" gradientTransform="matrix(1 0 0 -1 0 1533.153)" gradientUnits="userSpaceOnUse"><stop offset="0" stop-color="#fff"/><stop offset=".194" stop-color="#fff" stop-opacity=".635"/><stop offset=".388" stop-color="#fff" stop-opacity=".294"/><stop offset=".524" stop-color="#fff" stop-opacity=".082"/><stop offset=".59" stop-color="#fff" stop-opacity="0"/></radialGradient></defs><path d="M177.426 139.659v3.71h-7.73v16.322h-5.216v-16.322h-7.725v-3.71zM158.984 155.978v3.713h-16.559v-20.032h5.208v16.32zM58.675 155.978v3.713H41.278v-20.032h17.07v3.711H46.491v4.402h10.832v3.592H46.49v4.614zM31.945 152.245a6.97 6.97 0 0 0 3.608-6.091 5.873 5.873 0 0 0-1.882-4.764c-1.48-1.226-3.51-1.736-6.936-1.736H14.787l-.213 1.212s.213.362.46.794a1.855 1.855 0 0 1 .34 1.252v16.779h5.216v-6.414h6.472l3.474 6.414h5.738zm-2.635-3.251a2.112 2.112 0 0 1-1.616.58h-7.107v-6.107h5.615a4.878 4.878 0 0 1 3.165.678 2.672 2.672 0 0 1 .874 2.252 3.447 3.447 0 0 1-.931 2.602zM80.492 139.656v13.288c-1.215-1.527-2.49-3.006-4.646-5.377-1.756-1.926-5.414-5.879-7.293-7.908h-5.03l-.21 1.207s.215.362.46.794a1.866 1.866 0 0 1 .344.96v17.07l4.682-.014v-13.27c.934 1.247 2.599 3.16 3.708 4.364 2.21 2.39 5.549 6.117 8.143 8.92h4.499V139.66zM131.512 139.659v12.25a3.47 3.47 0 0 1-.94 2.798 6.13 6.13 0 0 1-4.247 1.16 6.256 6.256 0 0 1-4.31-1.16 3.477 3.477 0 0 1-.94-2.799v-12.25h-5.799l-.21 1.208s.215.362.457.794a1.928 1.928 0 0 1 .337.933v9.504c0 5.238 3.549 7.903 10.39 7.903h.145c6.847 0 10.208-2.593 10.208-7.903v-12.438zM104.27 139.659h-6.514c-1.974 4.071-5.41 11.603-8.625 20.033h5.229c.417-1.145.86-2.304 1.304-3.47h10.695c.449 1.166.89 2.33 1.304 3.47h5.232c-3.22-8.43-6.654-15.956-8.625-20.033zm-7.107 12.787a299.242 299.242 0 0 1 3.85-9.143 285.812 285.812 0 0 1 3.853 9.143z" fill="#fff"/><path d="M128.285 67.537c-1.54-3.26-5.156-10.317-8.82-16.977-5.166-9.384-13.249-22.757-14.08-23.902a2.937 2.937 0 0 0-.594-.653 1.053 1.053 0 0 0-.316-.161 3.452 3.452 0 0 0-1.003.01 4.257 4.257 0 0 1-.583.007c-1.725-.072-5.192-.145-8.608-.145-4.198 0-9.256.128-9.91.194a1.489 1.489 0 0 0-.598.159 1.518 1.518 0 0 0-.609.589c-.788 1.174-8.906 14.514-14.068 23.902-3.664 6.66-7.278 13.718-8.82 16.977a3.308 3.308 0 0 0 0 3.399c1.542 3.26 5.156 10.316 8.82 16.977 5.166 9.388 13.25 22.757 14.082 23.902a4.49 4.49 0 0 0 .354.439 1.272 1.272 0 0 0 .554.382 3.064 3.064 0 0 0 .95-.01 4.491 4.491 0 0 1 .585-.008c2.08.071 5.276.146 8.66.145 4.199 0 9.102-.11 9.84-.194l.118-.014a1.723 1.723 0 0 0 .524-.115c.17-.07.312-.206.66-.683.832-1.145 8.876-14.45 14.042-23.838 3.664-6.659 7.28-13.718 8.82-16.977a4.44 4.44 0 0 0 .47-1.807 3.733 3.733 0 0 0-.47-1.598zM104.447 71c-3.457 7.75-5.91 12.58-9.551 19.58-.21.403-.382.666-.62.67s-.407-.266-.618-.673c-3.642-6.998-6.094-11.832-9.551-19.58a4.198 4.198 0 0 1-.51-1.78 4.326 4.326 0 0 1 .51-1.749c3.456-7.75 5.91-12.58 9.55-19.579.21-.403.382-.666.617-.671.241 0 .41.264.622.671 3.64 6.998 6.094 11.832 9.55 19.58a4.182 4.182 0 0 1 .498 1.773 4.12 4.12 0 0 1-.497 1.758z" fill="url(#a)"/><path d="M128.285 67.537c-1.54-3.26-5.156-10.317-8.82-16.977-5.166-9.384-13.249-22.757-14.08-23.902a2.937 2.937 0 0 0-.594-.653 1.053 1.053 0 0 0-.316-.161 3.452 3.452 0 0 0-1.003.01 4.257 4.257 0 0 1-.583.007c-1.725-.072-5.192-.145-8.608-.145-4.198 0-9.256.128-9.91.194a1.489 1.489 0 0 0-.598.159 1.518 1.518 0 0 0-.609.589c-.788 1.174-8.906 14.514-14.068 23.902-3.664 6.66-7.278 13.718-8.82 16.977a3.308 3.308 0 0 0 0 3.399c1.542 3.26 5.156 10.316 8.82 16.977 5.166 9.388 13.25 22.757 14.082 23.902a4.49 4.49 0 0 0 .354.439 1.272 1.272 0 0 0 .554.382 3.064 3.064 0 0 0 .95-.01 4.491 4.491 0 0 1 .585-.008c2.08.071 5.276.146 8.66.145 4.199 0 9.102-.11 9.84-.194l.118-.014a1.723 1.723 0 0 0 .524-.115c.17-.07.312-.206.66-.683.832-1.145 8.876-14.45 14.042-23.838 3.664-6.659 7.28-13.718 8.82-16.977a4.44 4.44 0 0 0 .47-1.807 3.733 3.733 0 0 0-.47-1.598zM104.447 71c-3.457 7.75-5.91 12.58-9.551 19.58-.21.403-.382.666-.62.67s-.407-.266-.618-.673c-3.642-6.998-6.094-11.832-9.551-19.58a4.198 4.198 0 0 1-.51-1.78 4.326 4.326 0 0 1 .51-1.749c3.456-7.75 5.91-12.58 9.55-19.579.21-.403.382-.666.617-.671.241 0 .41.264.622.671 3.64 6.998 6.094 11.832 9.55 19.58a4.182 4.182 0 0 1 .498 1.773 4.12 4.12 0 0 1-.497 1.758z" fill="url(#b)"/><path d="M81.467 72.056a10.926 10.926 0 0 1-1.055-2.647 1.272 1.272 0 0 1 0-.23c.017-.191-.057-.121-.224.035a2.863 2.863 0 0 1-2.1.556c-1.131 0-10.773-.013-15.367-.013-.673 0-1.578-.05-1.578 1.018a13.104 13.104 0 0 0 1.654 4.072c6.104 11.92 12.875 23.836 20.134 35.473 0 0 1.108 1.781 1.222 1.928a.569.569 0 0 0 .52.2 192.725 192.725 0 0 0 8.324-17.625 449.27 449.27 0 0 1-11.53-22.767z" fill="url(#c)"/><path d="M127.902 69.345a2.382 2.382 0 0 1-1.669.419h-12.659c-5.804 0-5.216-.154-6.723 2.915-.673 1.366-1.365 2.975-2.072 4.294-5.068 10.596-17.43 31.934-19.106 34.581-.629.995-.72 1.049-.262 1.049 0 0 4.198.154 8.868.154 7.294 0 9.903-.201 9.903-.201 4.23-6.583 14.32-23.283 21.522-37.735 1.654-3.33 2.49-4.78 2.408-5.492-.014-.138-.14-.056-.21.016z" fill="url(#d)"/><path d="M103.849 26.036c-.313-.016-.537.224-.965.89-3.576 5.533-15.936 28.812-20.982 39.669a6.998 6.998 0 0 0-.931 2.623h2.632a4.326 4.326 0 0 1 .509-1.748c3.457-7.75 5.91-12.58 9.55-19.58.21-.402.383-.666.617-.67l1.017-2.977c3.565-8.876 8.553-18.207 8.553-18.207z" fill="url(#e)"/><path d="M107.578 69.247a6.743 6.743 0 0 0-.919-2.593 432.527 432.527 0 0 0-11.356-22.41l-1.018 2.979c.242 0 .41.264.622.672 3.64 6.997 6.094 11.832 9.551 19.579a4.182 4.182 0 0 1 .498 1.773z" fill="url(#f)"/><path d="M94.276 91.249c-.24 0-.407-.266-.618-.673-3.642-6.998-6.094-11.832-9.551-19.58a4.198 4.198 0 0 1-.51-1.78h-2.631a6.724 6.724 0 0 0 .918 2.624 434.24 434.24 0 0 0 11.344 22.392z" fill="url(#g)"/><path d="M94.276 91.249c-.24 0-.407-.266-.618-.673-3.642-6.998-6.094-11.832-9.551-19.58a4.198 4.198 0 0 1-.51-1.78h-2.631a6.715 6.715 0 0 0 .918 2.628 434.242 434.242 0 0 0 11.344 22.392z" fill="url(#h)"/><path d="M84.677 112.449c.29.014.636-.339 1.038-.95.106-.169.247-.4.421-.689 2.696-4.594 15.695-28.584 20.502-38.925a7.116 7.116 0 0 0 .941-2.638h-2.626a4.12 4.12 0 0 1-.509 1.752c-3.457 7.75-5.91 12.58-9.55 19.58-.21.403-.383.666-.62.67l-1.044 2.987a191.352 191.352 0 0 1-8.553 18.213z" fill="url(#i)"/><path d="M83.532 112.254a4.49 4.49 0 0 1-.354-.439c-.832-1.145-8.916-14.514-14.082-23.902-3.664-6.66-7.278-13.718-8.82-16.977a4.136 4.136 0 0 1-.47-1.699h-1.7a5.702 5.702 0 0 0 .637 2.43c1.2 2.603 4.56 9.236 8.867 17.07 4.708 8.556 13.244 22.783 14.196 24.084a4.036 4.036 0 0 0 1.046 1.063z" fill="url(#j)"/><path d="M82.85 113.884a2.82 2.82 0 0 0 1.4.374c1.272.113 6.833.206 10.034.206s9.206-.127 10.033-.206a3.36 3.36 0 0 0 1.122-.237l-.673-1.588a1.723 1.723 0 0 1-.524.116l-.118.014c-.738.084-5.643.192-9.84.194-3.385 0-6.58-.074-8.66-.145a4.491 4.491 0 0 0-.585.007 3.063 3.063 0 0 1-.95.01 1.272 1.272 0 0 1-.555-.381z" fill="url(#k)"/><path d="M130.455 69.236a5.709 5.709 0 0 0-.637-2.43c-1.286-2.68-5.397-10.779-8.867-17.07-4.64-8.416-13.199-22.75-14.194-24.082a3.411 3.411 0 0 0-1.314-1.207l-.652 1.558a2.937 2.937 0 0 1 .593.653c.832 1.145 8.915 14.514 14.08 23.902 3.665 6.66 7.28 13.718 8.821 16.977a3.733 3.733 0 0 1 .47 1.592z" fill="url(#l)"/><path d="M83.1 24.454l.673 1.615a1.489 1.489 0 0 1 .597-.16c.655-.065 5.714-.193 9.911-.193 3.416 0 6.883.073 8.608.145a4.257 4.257 0 0 0 .583-.007 3.452 3.452 0 0 1 1.003-.01 1.053 1.053 0 0 1 .316.161l.652-1.558a3.45 3.45 0 0 0-1.173-.232c-1.323-.12-7.01-.205-9.989-.205-2.622 0-8.711.068-10.137.21a3.546 3.546 0 0 0-1.044.234z" fill="url(#m)"/><path d="M83.1 24.454a3.45 3.45 0 0 0-1.353 1.272c-.984 1.283-9.542 15.72-14.14 24.016-3.238 5.84-8.382 15.96-8.87 17.07a6.065 6.065 0 0 0-.636 2.431h1.7a4.102 4.102 0 0 1 .47-1.7c1.542-3.259 5.156-10.318 8.82-16.977 5.17-9.39 13.285-22.734 14.073-23.908a1.518 1.518 0 0 1 .61-.59z" fill="url(#n)"/><path d="M105.436 114.021a3.336 3.336 0 0 0 1.321-1.2c.923-1.28 10.125-16.642 14.196-24.084s8.397-16.013 8.868-17.07a5.487 5.487 0 0 0 .636-2.431l-1.7-.107a4.44 4.44 0 0 1-.47 1.807c-1.54 3.26-5.156 10.318-8.82 16.977-5.165 9.388-13.21 22.692-14.042 23.837-.347.477-.49.613-.659.683z" fill="url(#o)"/><path d="M103.472 25.854l.093-.01a2.635 2.635 0 0 1-1.527.324c-1.309 0-4.024-.06-6.197-.073-4.013-.025-8.795.049-11.03.156-1.185.057-1.255.185-2.013.992l.374-.585a1.518 1.518 0 0 1 .609-.59 1.489 1.489 0 0 1 .597-.158c.655-.066 5.713-.194 9.91-.194 3.417 0 6.884.073 8.609.145a4.257 4.257 0 0 0 .583-.007" fill="#fff"/><g clip-path="url(#p)"><circle cx="107.468" cy="69.621" r="24.972" fill="url(#q)"/></g><path d="M104.456 67.474c-.14-.315-2.087-4.699-4.308-9.251a412.22 412.22 0 0 0-5.243-10.328c-.22-.407-.382-.672-.623-.672s-.39.234-.622.672c-.113.213-2.886 5.529-5.252 10.328s-4.178 8.987-4.299 9.25a4.402 4.402 0 0 0-.509 1.749 4.509 4.509 0 0 0 .51 1.781c.127.31 2.091 4.723 4.319 9.288 2.423 4.961 5.128 10.094 5.231 10.296.204.4.382.673.619.673s.408-.263.62-.67c.11-.213 2.798-5.344 5.223-10.298a305.332 305.332 0 0 0 4.326-9.281 4.149 4.149 0 0 0 .509-1.752 4.224 4.224 0 0 0-.501-1.785zm-.44 3.294l-.017.035c-.018.042-2.012 4.541-4.318 9.265a444.848 444.848 0 0 1-5.178 10.209l-.041.077c-.084.163-.157.28-.19.28s-.103-.114-.187-.278l-.127-.246a421.33 421.33 0 0 1-5.1-10.043 302.408 302.408 0 0 1-4.309-9.26l-.02-.046a4.03 4.03 0 0 1-.445-1.54 3.975 3.975 0 0 1 .465-1.545l.115-.255a237.26 237.26 0 0 1 4.178-8.98 525.15 525.15 0 0 1 5.246-10.315c.079-.147.146-.287.192-.287s.116.14.196.29c.023.042 2.754 5.23 5.234 10.311 2.183 4.474 4.09 8.761 4.302 9.235a3.817 3.817 0 0 1 .455 1.577 3.668 3.668 0 0 1-.452 1.516z"/><path d="M129.83 66.802c-1.314-2.74-5.404-10.789-8.868-17.071-4.75-8.614-13.232-22.792-14.197-24.085a2.712 2.712 0 0 0-2.368-1.427l-.127-.014c-1.283-.14-6.72-.205-9.989-.205-2.799 0-8.753.073-10.139.211a2.84 2.84 0 0 0-2.403 1.503C80.721 27.05 72.091 41.63 67.6 49.73c-3.25 5.852-8.397 15.98-8.871 17.07a6.168 6.168 0 0 0-.636 2.436 5.816 5.816 0 0 0 .636 2.434c1.077 2.338 4.325 8.814 8.869 17.071 4.734 8.612 13.287 22.845 14.196 24.085a2.766 2.766 0 0 0 2.45 1.441c1.317.117 6.998.205 10.035.205 3.28 0 9.215-.127 10.034-.205a2.799 2.799 0 0 0 2.45-1.441c.862-1.196 10.063-16.531 14.197-24.085 3.96-7.239 8.36-15.935 8.867-17.071a5.598 5.598 0 0 0 .636-2.435 5.733 5.733 0 0 0-.633-2.434zm-.45 4.668c-.51 1.131-4.896 9.807-8.852 17.036-4.127 7.542-13.307 22.84-14.164 24.032a2.33 2.33 0 0 1-2.094 1.238c-.81.073-6.72.203-9.989.203-3.032 0-8.687-.088-9.991-.203a2.304 2.304 0 0 1-2.095-1.24c-.904-1.235-9.434-15.434-14.162-24.032-4.533-8.244-7.778-14.707-8.853-17.04a5.351 5.351 0 0 1-.589-2.227 5.702 5.702 0 0 1 .59-2.237c.478-1.085 5.608-11.182 8.85-17.029 4.487-8.088 13.083-22.631 14.101-23.956.713-.93.967-1.202 2.061-1.311 1.374-.138 7.294-.21 10.088-.21 3.26 0 8.67.065 9.935.203l.128.014c.823.088 1.198.127 2.021 1.23.958 1.285 9.415 15.428 14.16 24.029 3.46 6.272 7.543 14.309 8.856 17.048a5.226 5.226 0 0 1 .585 2.22 5.17 5.17 0 0 1-.587 2.232z"/></svg>