<?xml version="1.0" encoding="UTF-8" standalone="no"?>
<!-- Created with Inkscape (http://www.inkscape.org/) -->

<svg
   xmlns:dc="http://purl.org/dc/elements/1.1/"
   xmlns:cc="http://creativecommons.org/ns#"
   xmlns:rdf="http://www.w3.org/1999/02/22-rdf-syntax-ns#"
   xmlns:svg="http://www.w3.org/2000/svg"
   xmlns="http://www.w3.org/2000/svg"
   version="1.1"
   width="600"
   height="800"
   id="svg2">
  <defs
     id="defs4" />
  <metadata
     id="metadata7">
    <rdf:RDF>
      <cc:Work
         rdf:about="">
        <dc:format>image/svg+xml</dc:format>
        <dc:type
           rdf:resource="http://purl.org/dc/dcmitype/StillImage" />
        <dc:title></dc:title>
      </cc:Work>
    </rdf:RDF>
  </metadata>
  <g
     transform="translate(0,-252.36218)"
     id="layer1">
    <rect
       width="561.69659"
       height="760.45081"
       rx="55.305511"
       ry="55.305511"
       x="22.187418"
       y="273.29538"
       id="rect3016-94"
       style="fill:#000000;stroke:#000000;stroke-width:14.51769638;stroke-linecap:round;stroke-linejoin:miter;stroke-miterlimit:4;stroke-opacity:1;stroke-dasharray:none;stroke-dashoffset:0" />
    <rect
       width="558.23999"
       height="589.34943"
       rx="62.2187"
       ry="62.2187"
       x="22.187418"
       y="273.29538"
       id="rect3016-4"
       style="fill:#ffe13c;fill-opacity:1;stroke:none" />
    <rect
       width="561.69659"
       height="760.45081"
       rx="55.305511"
       ry="55.305511"
       x="22.187418"
       y="273.29538"
       id="rect3016"
       style="fill:none;stroke:#000000;stroke-width:14.51769638;stroke-linecap:round;stroke-linejoin:miter;stroke-miterlimit:4;stroke-opacity:1;stroke-dasharray:none;stroke-dashoffset:0" />
    <path
       d="m 22.230633,869.49032 0,108.88272 c 0,30.63916 24.558237,55.34876 55.197491,55.34876 l 451.107166,0 c 30.63926,0 55.34872,-24.7096 55.34872,-55.34876 l 0,-108.88272 -561.653377,0 z"
       id="rect3016-9"
       style="fill:#ffffff;stroke:#000000;stroke-width:14.51769638;stroke-linecap:round;stroke-linejoin:miter;stroke-miterlimit:4;stroke-opacity:1;stroke-dasharray:none;stroke-dashoffset:0" />
    <path
       d="m 313.84484,374.65314 -4.74496,7.90828 118.6012,191.34101 -14.23165,9.48993 -148.64611,260.92089 -30.04485,0 L 68.737386,575.48403 230.03347,292.42675 l 15.81329,0 -159.714439,279.89397 9.489956,4.74497 158.132753,257.75744 4.74167,-7.90503 -154.96945,-251.43407 7.9083,-9.48992 156.55113,-273.56736 15.81326,0 -158.13278,276.73067 4.74167,6.32661 140.74116,229.29414 4.74167,-7.90493 -137.57453,-221.38921 9.48664,-4.74162 158.13609,-278.31566 15.81325,0 -158.13607,278.31566 124.92786,203.99091 4.74167,-7.90498 -118.59792,-191.34431 14.23163,-9.48992 154.96942,-273.56736 15.81664,0 173.94267,281.47568 -154.9694,270.41082 -15.8133,0 153.38779,-267.24756 -9.48664,-4.74497 -158.1328,-257.75734 -4.74496,7.90828 154.97278,251.43077 -7.90828,9.48993 -150.22447,260.92089 -15.81331,0 151.80613,-264.0842 -4.74496,-6.32662 -140.73784,-229.29419 -4.74501,7.90832 137.57787,221.38587 -9.48664,4.74496 -151.81276,265.66586 -15.80997,0 L 438.77271,578.64739 313.84484,374.65314 z m -17.39496,30.0482 -93.29799,164.45608 -3.16334,6.32661 104.36965,169.20438 94.87963,-164.45936 3.16002,-6.32662 -105.94797,-169.20109"
       id="path2999"
       style="fill:#000000;fill-opacity:1;fill-rule:evenodd;stroke:none" />
    <path
       d="m 102.4351,892.20277 0,118.02793 19.45227,0 0,-49.81363 2.23438,0 c 9.63151,0 10.38331,3.20164 10.38331,13.53776 l 0,36.27587 20.76662,0 0,-29.04703 c 0,-20.00974 -4.47928,-28.1953 -19.97801,-29.8358 14.52086,-2.46027 19.97801,-10.20981 19.97801,-26.94388 l 0,-4.86294 c 0,-19.84666 -8.31716,-27.33828 -27.73263,-27.33828 l -25.10395,0 z m 65.84858,0 0,118.02793 43.11044,0 0,-18.13795 -22.34383,0 0,-34.43597 19.05797,0 0,-18.26907 -19.05797,0 0,-29.04701 20.50375,0 0,-18.13793 -41.27036,0 z m 54.67666,0 0,118.02793 16.69215,0 -1.31433,-100.02163 1.31433,0 14.72066,100.02163 27.33832,0 0,-118.02793 -16.82359,0 1.44577,100.02161 -1.31434,0 -14.98352,-100.02161 -27.07545,0 z m 85.69515,0 -18.66366,118.02793 18.26936,0 3.54871,-24.70963 17.34932,0 2.76015,24.70963 20.10943,0 -16.69216,-118.02793 -26.68115,0 z m 51.65367,0 0,78.07182 c 0,30.34541 5.81463,41.92761 27.60119,41.92761 21.64463,0 27.73263,-11.4192 27.73263,-41.92761 l 0,-78.07182 -20.7666,0 0,83.46079 c 0,12.46489 -0.68872,18.13792 -6.83459,18.13792 -6.28254,0 -6.96603,-5.67303 -6.96603,-18.13792 l 0,-83.46079 -20.7666,0 z m 69.52873,0 0,118.02793 44.55622,0 0,-18.13795 -23.78962,0 0,-99.88998 -20.7666,0 z m 38.11593,0 0,18.13793 15.50925,0 0,99.89 21.42381,0 0,-99.89 15.50926,0 0,-18.13793 -52.44232,0 z m -346.06645,17.48076 1.70865,0 c 8.10161,0 10.77761,3.23842 10.77761,13.40613 l 0,6.44053 c 0,10.17303 -2.676,13.53775 -10.77761,13.53775 l -1.70865,0 0,-33.38441 z m 199.38579,2.75982 0.52578,0 5.38878,54.80817 -12.74911,0 6.83455,-54.80817 z"
       id="path3886"
       style="fill:#000000;fill-opacity:1;fill-rule:evenodd;stroke:none" />
  </g>
</svg>
